<?xml version="1.0" encoding="UTF-8"?><svg xmlns="http://www.w3.org/2000/svg" xmlns:xlink="http://www.w3.org/1999/xlink" contentScriptType="text/ecmascript" width="810" zoomAndPan="magnify" contentStyleType="text/css" viewBox="0 0 810 809.999993" height="809.999993" preserveAspectRatio="xMidYMid meet" version="1.0"><defs><clipPath id="clip-0"><path d="M 677 335 L 753.449219 335 L 753.449219 361 L 677 361 Z M 677 335 " clip-rule="nonzero"/></clipPath><clipPath id="clip-1"><path d="M 56.699219 335 L 133 335 L 133 361 L 56.699219 361 Z M 56.699219 335 " clip-rule="nonzero"/></clipPath></defs><rect x="-81" width="972" fill="rgb(100%, 100%, 100%)" y="-80.999999" height="971.999992" fill-opacity="1"/><rect x="-81" width="972" fill="rgb(100%, 100%, 100%)" y="-80.999999" height="971.999992" fill-opacity="1"/><rect x="-81" width="972" fill="rgb(0%, 76.078796%, 79.60968%)" y="-80.999999" height="971.999992" fill-opacity="1"/><path fill="rgb(100%, 100%, 100%)" d="M 109.90625 191.90625 C 109.90625 191.90625 153.613281 217.234375 153.613281 217.234375 C 159.3125 220.402344 167.546875 218.5 170.714844 212.800781 C 174.515625 206.46875 171.980469 198.871094 166.28125 195.703125 L 122.574219 170.375 C 116.242188 166.574219 108.640625 169.105469 105.472656 174.804688 C 101.671875 181.140625 104.207031 188.738281 109.90625 191.90625 Z M 109.90625 191.90625 " fill-opacity="1" fill-rule="nonzero"/><path fill="rgb(100%, 100%, 100%)" d="M 153.613281 481.941406 L 109.90625 507.273438 C 103.574219 511.074219 101.671875 518.671875 105.472656 524.371094 C 108.640625 530.070312 116.875 532.605469 122.574219 528.804688 L 166.28125 503.472656 C 172.613281 499.675781 174.515625 492.074219 170.714844 486.375 C 166.914062 480.675781 159.945312 478.144531 153.613281 481.941406 Z M 153.613281 481.941406 " fill-opacity="1" fill-rule="nonzero"/><path fill="rgb(100%, 100%, 100%)" d="M 702.144531 507.273438 L 658.4375 481.941406 C 652.105469 478.144531 644.503906 480.675781 641.335938 486.375 C 637.535156 492.707031 640.070312 500.308594 645.769531 503.472656 C 645.769531 503.472656 689.476562 528.804688 689.476562 528.804688 C 695.175781 531.972656 703.410156 530.070312 706.578125 524.371094 C 710.378906 518.671875 708.476562 510.441406 702.144531 507.273438 Z M 702.144531 507.273438 " fill-opacity="1" fill-rule="nonzero"/><g clip-path="url(#clip-0)"><path fill="rgb(100%, 100%, 100%)" d="M 740.78125 335.65625 L 690.109375 335.65625 C 683.140625 335.65625 677.441406 341.355469 677.441406 348.324219 C 677.441406 355.289062 683.140625 360.988281 690.109375 360.988281 L 740.78125 360.988281 C 747.75 360.988281 753.449219 355.289062 753.449219 348.324219 C 753.449219 341.355469 747.75 335.65625 740.78125 335.65625 Z M 740.78125 335.65625 " fill-opacity="1" fill-rule="nonzero"/></g><g clip-path="url(#clip-1)"><path fill="rgb(100%, 100%, 100%)" d="M 132.710938 348.324219 C 132.710938 341.355469 127.007812 335.65625 120.039062 335.65625 L 69.367188 335.65625 C 62.402344 335.65625 56.699219 341.355469 56.699219 348.324219 C 56.699219 355.289062 62.402344 360.988281 69.367188 360.988281 L 120.039062 360.988281 C 127.007812 360.988281 132.710938 355.289062 132.710938 348.324219 Z M 132.710938 348.324219 " fill-opacity="1" fill-rule="nonzero"/></g><path fill="rgb(100%, 100%, 100%)" d="M 658.4375 217.867188 L 702.144531 192.539062 C 708.476562 188.738281 710.378906 181.140625 706.578125 175.4375 C 702.777344 169.105469 695.175781 167.207031 689.476562 171.007812 L 645.769531 196.335938 C 639.4375 200.136719 638.167969 207.734375 641.335938 213.4375 C 646.402344 222.933594 655.90625 219.136719 658.4375 217.867188 Z M 658.4375 217.867188 " fill-opacity="1" fill-rule="nonzero"/><path fill="rgb(100%, 100%, 100%)" d="M 541.890625 112.746094 C 547.59375 115.910156 555.828125 114.011719 558.992188 108.3125 L 584.328125 63.984375 C 587.496094 57.652344 585.597656 50.050781 579.894531 46.886719 C 573.5625 43.71875 565.960938 45.617188 562.792969 51.320312 L 537.457031 95.648438 C 533.65625 101.347656 535.558594 109.578125 541.890625 112.746094 Z M 541.890625 112.746094 " fill-opacity="1" fill-rule="nonzero"/><path fill="rgb(100%, 100%, 100%)" d="M 253.058594 108.3125 C 256.222656 114.011719 264.457031 116.546875 270.160156 112.746094 C 276.492188 109.578125 278.394531 101.347656 274.59375 95.648438 L 249.257812 51.320312 C 246.089844 44.984375 237.855469 43.085938 232.15625 46.886719 C 225.820312 50.050781 223.921875 58.285156 227.71875 63.984375 C 227.71875 63.984375 253.058594 108.3125 253.058594 108.3125 Z M 253.058594 108.3125 " fill-opacity="1" fill-rule="nonzero"/><path fill="rgb(100%, 100%, 100%)" d="M 405.074219 76.015625 C 412.042969 76.015625 417.742188 70.316406 417.742188 63.351562 L 417.742188 12.6875 C 417.742188 5.722656 412.042969 0.0234375 405.074219 0.0234375 C 398.109375 0.0234375 392.40625 5.722656 392.40625 12.6875 L 392.40625 63.351562 C 392.40625 70.316406 398.109375 76.015625 405.074219 76.015625 Z M 405.074219 76.015625 " fill-opacity="1" fill-rule="nonzero"/><path fill="rgb(100%, 100%, 100%)" d="M 320.199219 76.648438 C 322.097656 82.980469 329.066406 87.414062 335.398438 85.515625 C 342.367188 83.613281 346.167969 76.648438 344.269531 70.316406 L 337.933594 45.617188 C 336.035156 38.652344 329.066406 34.851562 322.730469 36.753906 C 316.398438 38.019531 311.964844 44.984375 313.863281 51.953125 C 313.863281 51.953125 320.199219 76.648438 320.199219 76.648438 Z M 320.199219 76.648438 " fill-opacity="1" fill-rule="nonzero"/><path fill="rgb(100%, 100%, 100%)" d="M 196.050781 156.441406 C 201.117188 161.507812 209.351562 161.507812 213.785156 156.441406 C 218.851562 151.375 218.851562 143.777344 213.785156 138.710938 L 196.683594 120.34375 C 191.617188 115.277344 184.015625 115.277344 178.949219 120.34375 C 173.878906 125.410156 173.878906 133.011719 178.949219 138.078125 C 178.316406 138.078125 196.050781 156.441406 196.050781 156.441406 Z M 196.050781 156.441406 " fill-opacity="1" fill-rule="nonzero"/><path fill="rgb(100%, 100%, 100%)" d="M 104.207031 281.195312 L 128.273438 287.527344 C 135.242188 289.429688 142.210938 284.996094 144.109375 278.664062 C 146.011719 271.695312 142.210938 264.730469 135.242188 262.832031 L 111.171875 256.5 C 104.207031 254.597656 97.238281 258.398438 95.339844 265.363281 C 93.4375 272.328125 97.238281 279.296875 104.207031 281.195312 Z M 104.207031 281.195312 " fill-opacity="1" fill-rule="nonzero"/><path fill="rgb(100%, 100%, 100%)" d="M 110.539062 442.679688 L 134.609375 436.347656 C 141.578125 434.445312 145.378906 427.480469 143.476562 420.515625 C 141.578125 413.550781 134.609375 409.75 127.640625 411.648438 L 103.574219 417.980469 C 96.605469 419.882812 92.804688 426.847656 94.703125 433.8125 C 97.238281 440.148438 104.207031 444.578125 110.539062 442.679688 Z M 110.539062 442.679688 " fill-opacity="1" fill-rule="nonzero"/><path fill="rgb(100%, 100%, 100%)" d="M 708.476562 417.980469 L 684.410156 411.648438 C 677.441406 409.75 670.472656 413.550781 668.574219 420.515625 C 666.671875 427.480469 670.472656 434.445312 677.441406 436.347656 L 701.511719 442.679688 C 708.476562 444.578125 715.445312 440.148438 717.34375 433.8125 C 719.246094 426.847656 714.8125 419.882812 708.476562 417.980469 Z M 708.476562 417.980469 " fill-opacity="1" fill-rule="nonzero"/><path fill="rgb(100%, 100%, 100%)" d="M 701.511719 256.5 L 677.441406 262.832031 C 670.472656 264.730469 666.671875 271.695312 668.574219 278.664062 C 670.472656 284.996094 677.441406 289.429688 684.410156 287.527344 L 708.476562 281.195312 C 715.445312 279.296875 719.246094 272.328125 717.34375 265.363281 C 715.445312 259.03125 708.476562 255.230469 701.511719 256.5 Z M 701.511719 256.5 " fill-opacity="1" fill-rule="nonzero"/><path fill="rgb(100%, 100%, 100%)" d="M 616 156.441406 L 633.734375 138.710938 C 638.804688 133.644531 638.804688 125.410156 633.734375 120.976562 C 628.667969 115.910156 620.433594 115.910156 616 120.976562 L 598.265625 138.710938 C 593.199219 143.777344 593.199219 151.375 598.265625 156.441406 C 604.597656 162.773438 612.832031 159.609375 616 156.441406 Z M 616 156.441406 " fill-opacity="1" fill-rule="nonzero"/><path fill="rgb(100%, 100%, 100%)" d="M 476.648438 85.515625 C 483.617188 87.414062 490.585938 82.980469 491.851562 76.648438 L 498.1875 51.953125 C 500.085938 44.984375 496.285156 38.019531 489.320312 36.753906 C 482.351562 34.851562 475.382812 39.285156 474.117188 45.617188 L 467.78125 70.316406 C 465.882812 76.648438 469.683594 83.613281 476.648438 85.515625 Z M 476.648438 85.515625 " fill-opacity="1" fill-rule="nonzero"/><path fill="rgb(100%, 100%, 100%)" d="M 405.074219 101.347656 C 268.890625 101.347656 158.046875 214.703125 158.046875 353.386719 C 158.046875 400.882812 171.347656 447.746094 196.050781 487.640625 C 205.550781 503.472656 216.953125 517.40625 228.355469 530.703125 C 234.6875 538.304688 241.023438 546.535156 247.355469 554.136719 C 281.558594 600.363281 308.164062 668.125 315.132812 727.019531 C 317.03125 741.582031 326.53125 752.980469 338.566406 758.046875 L 338.566406 772.613281 C 338.566406 793.511719 355.035156 809.976562 375.304688 809.976562 L 435.480469 809.976562 C 455.746094 809.976562 472.214844 792.878906 472.214844 772.613281 L 472.214844 758.046875 C 484.882812 753.617188 495.019531 741.582031 496.285156 727.652344 C 501.351562 683.324219 517.820312 630.761719 538.722656 594.03125 C 550.125 573.765625 563.425781 556.667969 577.996094 537.671875 C 591.296875 520.570312 605.230469 502.839844 616.632812 483.207031 C 640.070312 443.945312 652.105469 398.984375 652.105469 352.753906 C 652.105469 214.703125 541.257812 101.347656 405.074219 101.347656 Z M 434.84375 785.277344 L 374.671875 785.277344 C 368.335938 785.277344 363.269531 779.578125 363.269531 773.246094 L 363.269531 759.949219 L 404.441406 759.949219 C 404.441406 759.949219 404.441406 759.949219 405.074219 759.949219 C 405.707031 759.949219 405.074219 759.949219 405.707031 759.949219 L 446.878906 759.949219 L 446.878906 773.246094 C 446.246094 779.578125 441.179688 785.277344 434.84375 785.277344 Z M 594.464844 471.175781 C 583.695312 489.542969 571.027344 505.375 557.726562 523.105469 C 543.15625 541.46875 528.589844 561.101562 515.921875 582.632812 C 493.753906 621.894531 476.015625 678.257812 470.316406 725.75 C 469.683594 730.183594 467.148438 733.984375 463.347656 735.25 C 462.714844 735.25 417.742188 735.25 417.742188 735.25 L 417.742188 519.304688 C 417.742188 512.339844 412.042969 506.640625 405.074219 506.640625 C 398.109375 506.640625 392.40625 512.339844 392.40625 519.304688 L 392.40625 734.617188 C 392.40625 734.617188 347.433594 734.617188 346.800781 734.617188 C 343 732.71875 340.46875 728.917969 339.832031 724.484375 C 332.234375 660.523438 304.363281 590.230469 266.992188 539.570312 C 260.65625 531.335938 254.324219 523.105469 247.355469 514.871094 C 236.589844 501.574219 225.820312 488.910156 216.953125 474.34375 C 195.417969 438.246094 183.382812 396.449219 183.382812 353.386719 C 183.382812 228.632812 282.828125 126.675781 405.074219 126.675781 C 527.324219 126.675781 626.769531 228.632812 626.769531 353.386719 C 626.769531 395.183594 616 435.714844 594.464844 471.175781 Z M 594.464844 471.175781 " fill-opacity="1" fill-rule="nonzero"/><path fill="rgb(100%, 100%, 100%)" d="M 339.199219 331.222656 C 306.261719 338.824219 284.726562 367.320312 284.726562 405.949219 L 284.726562 455.976562 C 284.726562 462.945312 290.429688 468.644531 297.394531 468.644531 C 304.363281 468.644531 310.0625 462.945312 310.0625 455.976562 L 310.0625 405.949219 C 310.0625 374.285156 328.433594 354.65625 357.570312 354.65625 L 372.136719 354.65625 C 359.46875 349.589844 348.066406 341.355469 339.199219 331.222656 Z M 339.199219 331.222656 " fill-opacity="1" fill-rule="nonzero"/><path fill="rgb(100%, 100%, 100%)" d="M 470.949219 331.222656 C 462.082031 341.355469 450.679688 349.589844 438.011719 354.65625 L 452.582031 354.65625 C 481.71875 354.65625 500.085938 374.285156 500.085938 405.949219 L 500.085938 455.976562 C 500.085938 462.945312 505.785156 468.644531 512.753906 468.644531 C 519.722656 468.644531 525.421875 462.945312 525.421875 455.976562 L 525.421875 405.949219 C 525.421875 367.320312 503.886719 338.824219 470.949219 331.222656 Z M 470.949219 331.222656 " fill-opacity="1" fill-rule="nonzero"/><path fill="rgb(100%, 100%, 100%)" d="M 468.414062 272.328125 C 468.414062 237.5 439.914062 209.003906 405.074219 209.003906 C 370.238281 209.003906 341.734375 237.5 341.734375 272.328125 C 341.734375 307.160156 370.238281 335.65625 405.074219 335.65625 C 439.914062 335.65625 468.414062 307.160156 468.414062 272.328125 Z M 405.074219 310.324219 C 384.171875 310.324219 367.070312 293.226562 367.070312 272.328125 C 367.070312 251.433594 384.171875 234.332031 405.074219 234.332031 C 425.976562 234.332031 443.078125 251.433594 443.078125 272.328125 C 443.078125 293.226562 425.976562 310.324219 405.074219 310.324219 Z M 405.074219 310.324219 " fill-opacity="1" fill-rule="nonzero"/></svg>