<?xml version="1.0" encoding="UTF-8"?><svg xmlns="http://www.w3.org/2000/svg" xmlns:xlink="http://www.w3.org/1999/xlink" contentScriptType="text/ecmascript" width="810" zoomAndPan="magnify" contentStyleType="text/css" viewBox="0 0 810 809.999993" height="809.999993" preserveAspectRatio="xMidYMid meet" version="1.0"><defs><clipPath id="clip-0"><path d="M 126.234375 126.234375 L 683.484375 126.234375 L 683.484375 683.484375 L 126.234375 683.484375 Z M 126.234375 126.234375 " clip-rule="nonzero"/></clipPath></defs><rect x="-81" width="972" fill="rgb(100%, 100%, 100%)" y="-80.999999" height="971.999992" fill-opacity="1"/><rect x="-81" width="972" fill="rgb(100%, 100%, 100%)" y="-80.999999" height="971.999992" fill-opacity="1"/><rect x="-81" width="972" fill="rgb(0%, 76.078796%, 79.60968%)" y="-80.999999" height="971.999992" fill-opacity="1"/><g clip-path="url(#clip-0)"><path fill="rgb(100%, 100%, 100%)" d="M 637.046875 664.910156 L 172.671875 664.910156 C 157.308594 664.910156 144.808594 652.410156 144.808594 637.046875 L 144.808594 293.410156 L 664.910156 293.410156 L 664.910156 637.046875 C 664.910156 652.410156 652.410156 664.910156 637.046875 664.910156 Z M 172.671875 181.957031 L 228.394531 181.957031 L 228.394531 209.820312 C 228.394531 225.1875 240.894531 237.683594 256.257812 237.683594 C 271.625 237.683594 284.121094 225.1875 284.121094 209.820312 L 284.121094 181.957031 L 376.996094 181.957031 L 376.996094 209.820312 C 376.996094 225.1875 389.496094 237.683594 404.859375 237.683594 C 420.222656 237.683594 432.722656 225.1875 432.722656 209.820312 L 432.722656 181.957031 L 525.597656 181.957031 L 525.597656 209.820312 C 525.597656 225.1875 538.09375 237.683594 553.457031 237.683594 C 568.824219 237.683594 581.320312 225.1875 581.320312 209.820312 L 581.320312 181.957031 L 637.046875 181.957031 C 652.410156 181.957031 664.910156 194.457031 664.910156 209.820312 L 664.910156 274.832031 L 144.808594 274.832031 L 144.808594 209.820312 C 144.808594 194.457031 157.308594 181.957031 172.671875 181.957031 Z M 246.972656 154.097656 C 246.972656 148.976562 251.140625 144.808594 256.257812 144.808594 C 261.378906 144.808594 265.546875 148.976562 265.546875 154.097656 L 265.546875 209.820312 C 265.546875 214.941406 261.378906 219.109375 256.257812 219.109375 C 251.140625 219.109375 246.972656 214.941406 246.972656 209.820312 Z M 395.570312 154.097656 C 395.570312 148.976562 399.738281 144.808594 404.859375 144.808594 C 409.980469 144.808594 414.144531 148.976562 414.144531 154.097656 L 414.144531 209.820312 C 414.144531 214.941406 409.980469 219.109375 404.859375 219.109375 C 399.738281 219.109375 395.570312 214.941406 395.570312 209.820312 Z M 544.171875 154.097656 C 544.171875 148.976562 548.339844 144.808594 553.457031 144.808594 C 558.578125 144.808594 562.746094 148.976562 562.746094 154.097656 L 562.746094 209.820312 C 562.746094 214.941406 558.578125 219.109375 553.457031 219.109375 C 548.339844 219.109375 544.171875 214.941406 544.171875 209.820312 Z M 637.046875 163.382812 L 581.320312 163.382812 L 581.320312 154.097656 C 581.320312 138.730469 568.824219 126.234375 553.457031 126.234375 C 538.09375 126.234375 525.597656 138.730469 525.597656 154.097656 L 525.597656 163.382812 L 432.722656 163.382812 L 432.722656 154.097656 C 432.722656 138.730469 420.222656 126.234375 404.859375 126.234375 C 389.496094 126.234375 376.996094 138.730469 376.996094 154.097656 L 376.996094 163.382812 L 284.121094 163.382812 L 284.121094 154.097656 C 284.121094 138.730469 271.625 126.234375 256.257812 126.234375 C 240.894531 126.234375 228.394531 138.730469 228.394531 154.097656 L 228.394531 163.382812 L 172.671875 163.382812 C 147.066406 163.382812 126.234375 184.21875 126.234375 209.820312 L 126.234375 637.046875 C 126.234375 662.648438 147.066406 683.484375 172.671875 683.484375 L 637.046875 683.484375 C 662.648438 683.484375 683.484375 662.648438 683.484375 637.046875 L 683.484375 209.820312 C 683.484375 184.21875 662.648438 163.382812 637.046875 163.382812 " fill-opacity="1" fill-rule="nonzero"/></g><path fill="rgb(100%, 100%, 100%)" d="M 609.183594 395.570312 L 590.609375 395.570312 L 590.609375 376.996094 L 609.183594 376.996094 Z M 618.472656 358.421875 L 581.320312 358.421875 C 576.191406 358.421875 572.035156 362.578125 572.035156 367.707031 L 572.035156 404.859375 C 572.035156 409.988281 576.191406 414.144531 581.320312 414.144531 L 618.472656 414.144531 C 623.601562 414.144531 627.757812 409.988281 627.757812 404.859375 L 627.757812 367.707031 C 627.757812 362.578125 623.601562 358.421875 618.472656 358.421875 " fill-opacity="1" fill-rule="nonzero"/><path fill="rgb(100%, 100%, 100%)" d="M 423.433594 581.320312 L 404.859375 581.320312 L 404.859375 562.746094 L 423.433594 562.746094 Z M 432.722656 544.171875 L 395.570312 544.171875 C 390.441406 544.171875 386.285156 548.328125 386.285156 553.457031 L 386.285156 590.609375 C 386.285156 595.738281 390.441406 599.894531 395.570312 599.894531 L 432.722656 599.894531 C 437.851562 599.894531 442.007812 595.738281 442.007812 590.609375 L 442.007812 553.457031 C 442.007812 548.328125 437.851562 544.171875 432.722656 544.171875 " fill-opacity="1" fill-rule="nonzero"/><path fill="rgb(100%, 100%, 100%)" d="M 330.558594 395.570312 L 311.984375 395.570312 L 311.984375 376.996094 L 330.558594 376.996094 Z M 339.847656 358.421875 L 302.695312 358.421875 C 297.566406 358.421875 293.410156 362.578125 293.410156 367.707031 L 293.410156 404.859375 C 293.410156 409.988281 297.566406 414.144531 302.695312 414.144531 L 339.847656 414.144531 C 344.976562 414.144531 349.132812 409.988281 349.132812 404.859375 L 349.132812 367.707031 C 349.132812 362.578125 344.976562 358.421875 339.847656 358.421875 " fill-opacity="1" fill-rule="nonzero"/><path fill="rgb(100%, 100%, 100%)" d="M 237.683594 488.445312 L 219.109375 488.445312 L 219.109375 469.871094 L 237.683594 469.871094 Z M 246.972656 451.296875 L 209.820312 451.296875 C 204.691406 451.296875 200.535156 455.453125 200.535156 460.582031 L 200.535156 497.734375 C 200.535156 502.863281 204.691406 507.019531 209.820312 507.019531 L 246.972656 507.019531 C 252.101562 507.019531 256.257812 502.863281 256.257812 497.734375 L 256.257812 460.582031 C 256.257812 455.453125 252.101562 451.296875 246.972656 451.296875 " fill-opacity="1" fill-rule="nonzero"/><path fill="rgb(100%, 100%, 100%)" d="M 330.558594 488.445312 L 311.984375 488.445312 L 311.984375 469.871094 L 330.558594 469.871094 Z M 339.847656 451.296875 L 302.695312 451.296875 C 297.566406 451.296875 293.410156 455.453125 293.410156 460.582031 L 293.410156 497.734375 C 293.410156 502.863281 297.566406 507.019531 302.695312 507.019531 L 339.847656 507.019531 C 344.976562 507.019531 349.132812 502.863281 349.132812 497.734375 L 349.132812 460.582031 C 349.132812 455.453125 344.976562 451.296875 339.847656 451.296875 " fill-opacity="1" fill-rule="nonzero"/><path fill="rgb(100%, 100%, 100%)" d="M 237.683594 581.320312 L 219.109375 581.320312 L 219.109375 562.746094 L 237.683594 562.746094 Z M 246.972656 544.171875 L 209.820312 544.171875 C 204.691406 544.171875 200.535156 548.328125 200.535156 553.457031 L 200.535156 590.609375 C 200.535156 595.738281 204.691406 599.894531 209.820312 599.894531 L 246.972656 599.894531 C 252.101562 599.894531 256.257812 595.738281 256.257812 590.609375 L 256.257812 553.457031 C 256.257812 548.328125 252.101562 544.171875 246.972656 544.171875 " fill-opacity="1" fill-rule="nonzero"/><path fill="rgb(100%, 100%, 100%)" d="M 330.558594 581.320312 L 311.984375 581.320312 L 311.984375 562.746094 L 330.558594 562.746094 Z M 339.847656 544.171875 L 302.695312 544.171875 C 297.566406 544.171875 293.410156 548.328125 293.410156 553.457031 L 293.410156 590.609375 C 293.410156 595.738281 297.566406 599.894531 302.695312 599.894531 L 339.847656 599.894531 C 344.976562 599.894531 349.132812 595.738281 349.132812 590.609375 L 349.132812 553.457031 C 349.132812 548.328125 344.976562 544.171875 339.847656 544.171875 " fill-opacity="1" fill-rule="nonzero"/><path fill="rgb(100%, 100%, 100%)" d="M 491.085938 437.484375 C 489.027344 439.589844 488.09375 442.558594 488.570312 445.464844 L 494.261719 480.351562 L 465.078125 464.222656 C 463.675781 463.449219 462.128906 463.0625 460.582031 463.0625 C 459.039062 463.0625 457.492188 463.449219 456.089844 464.222656 L 426.90625 480.351562 L 432.597656 445.464844 C 433.074219 442.558594 432.140625 439.589844 430.082031 437.484375 L 405.550781 412.347656 L 439.03125 407.230469 C 442.089844 406.761719 444.714844 404.800781 446.03125 401.996094 L 460.582031 370.992188 L 475.136719 401.996094 C 476.453125 404.800781 479.078125 406.761719 482.136719 407.230469 L 515.613281 412.347656 Z M 536.285156 396.714844 L 489.84375 389.617188 L 468.992188 345.1875 C 467.464844 341.929688 464.183594 339.847656 460.582031 339.847656 C 456.984375 339.847656 453.703125 341.929688 452.175781 345.1875 L 431.324219 389.617188 L 384.882812 396.714844 C 381.441406 397.238281 378.582031 399.644531 377.476562 402.945312 C 376.371094 406.246094 377.203125 409.886719 379.636719 412.382812 L 413.511719 447.101562 L 405.5 496.238281 C 404.925781 499.746094 406.410156 503.277344 409.316406 505.324219 C 412.222656 507.375 416.046875 507.582031 419.15625 505.859375 L 460.582031 482.964844 L 502.011719 505.859375 C 503.414062 506.636719 504.960938 507.019531 506.503906 507.019531 C 508.382812 507.019531 510.253906 506.449219 511.851562 505.324219 C 514.757812 503.277344 516.242188 499.746094 515.667969 496.238281 L 507.65625 447.101562 L 541.53125 412.382812 C 543.960938 409.886719 544.796875 406.246094 543.691406 402.945312 C 542.585938 399.644531 539.726562 397.238281 536.285156 396.714844 " fill-opacity="1" fill-rule="nonzero"/><path fill="rgb(100%, 100%, 100%)" d="M 609.183594 488.445312 L 590.609375 488.445312 L 590.609375 469.871094 L 609.183594 469.871094 Z M 618.472656 451.296875 L 581.320312 451.296875 C 576.191406 451.296875 572.035156 455.453125 572.035156 460.582031 L 572.035156 497.734375 C 572.035156 502.863281 576.191406 507.019531 581.320312 507.019531 L 618.472656 507.019531 C 623.601562 507.019531 627.757812 502.863281 627.757812 497.734375 L 627.757812 460.582031 C 627.757812 455.453125 623.601562 451.296875 618.472656 451.296875 " fill-opacity="1" fill-rule="nonzero"/><path fill="rgb(100%, 100%, 100%)" d="M 609.183594 581.320312 L 590.609375 581.320312 L 590.609375 562.746094 L 609.183594 562.746094 Z M 618.472656 544.171875 L 581.320312 544.171875 C 576.191406 544.171875 572.035156 548.328125 572.035156 553.457031 L 572.035156 590.609375 C 572.035156 595.738281 576.191406 599.894531 581.320312 599.894531 L 618.472656 599.894531 C 623.601562 599.894531 627.757812 595.738281 627.757812 590.609375 L 627.757812 553.457031 C 627.757812 548.328125 623.601562 544.171875 618.472656 544.171875 " fill-opacity="1" fill-rule="nonzero"/><path fill="rgb(100%, 100%, 100%)" d="M 516.308594 581.320312 L 497.734375 581.320312 L 497.734375 562.746094 L 516.308594 562.746094 Z M 525.597656 544.171875 L 488.445312 544.171875 C 483.316406 544.171875 479.160156 548.328125 479.160156 553.457031 L 479.160156 590.609375 C 479.160156 595.738281 483.316406 599.894531 488.445312 599.894531 L 525.597656 599.894531 C 530.726562 599.894531 534.882812 595.738281 534.882812 590.609375 L 534.882812 553.457031 C 534.882812 548.328125 530.726562 544.171875 525.597656 544.171875 " fill-opacity="1" fill-rule="nonzero"/></svg>