<?xml version="1.0" encoding="UTF-8"?><svg xmlns="http://www.w3.org/2000/svg" xmlns:xlink="http://www.w3.org/1999/xlink" contentScriptType="text/ecmascript" width="810" zoomAndPan="magnify" contentStyleType="text/css" viewBox="0 0 810 809.999993" height="809.999993" preserveAspectRatio="xMidYMid meet" version="1.0"><defs><clipPath id="clip-0"><path d="M 1 128 L 805 128 L 805 647.03125 L 1 647.03125 Z M 1 128 " clip-rule="nonzero"/></clipPath></defs><rect x="-81" width="972" fill="rgb(100%, 100%, 100%)" y="-80.999999" height="971.999992" fill-opacity="1"/><rect x="-81" width="972" fill="rgb(100%, 100%, 100%)" y="-80.999999" height="971.999992" fill-opacity="1"/><rect x="-81" width="972" fill="rgb(0%, 76.078796%, 79.60968%)" y="-80.999999" height="971.999992" fill-opacity="1"/><g clip-path="url(#clip-0)"><path fill="rgb(100%, 100%, 100%)" d="M 674.308594 212.457031 C 603.398438 168.277344 567.722656 131.648438 567.378906 131.289062 C 564.367188 128.160156 559.671875 127.375 555.824219 129.351562 C 430.878906 193.265625 309.667969 213.601562 229.984375 219.394531 C 143.449219 225.6875 85.8125 216.703125 85.242188 216.613281 C 81.652344 216.027344 78.046875 217.488281 75.855469 220.386719 C 73.667969 223.289062 73.246094 227.15625 74.773438 230.453125 C 117.921875 323.777344 222.988281 386.253906 229.082031 389.816406 C 282.363281 422.953125 325.339844 457.808594 346.222656 475.648438 C 387.171875 510.632812 406.621094 544.644531 407.398438 582.671875 C 407.507812 588.039062 411.886719 592.308594 417.21875 592.308594 C 417.285156 592.308594 417.355469 592.308594 417.421875 592.304688 C 422.855469 592.191406 427.160156 587.699219 427.050781 582.269531 C 426.160156 538.820312 403.894531 499.050781 358.984375 460.691406 C 337.664062 442.480469 293.773438 406.875 239.332031 373.039062 C 239.25 372.988281 239.175781 372.933594 239.085938 372.886719 C 238.101562 372.3125 146.070312 318.09375 100.894531 238.304688 C 124.945312 240.640625 170.738281 243.386719 230.753906 239.0625 C 311.0625 233.28125 432.566406 213.089844 558.445312 150.066406 C 570.917969 161.929688 605.621094 192.832031 663.925781 229.160156 C 692.742188 247.117188 733.347656 276.722656 763.085938 315.800781 C 782.417969 341.195312 789.542969 373.644531 782.652344 404.824219 C 775.742188 436.050781 755.554688 462.503906 727.265625 477.398438 C 712.675781 485.089844 696.074219 492.601562 677.921875 499.738281 C 677.722656 499.8125 677.523438 499.898438 677.332031 499.984375 C 675.121094 501.035156 455.207031 604.367188 393.335938 621.863281 C 393.144531 621.910156 392.980469 622.015625 392.785156 622.078125 C 392.605469 622.140625 392.421875 622.167969 392.25 622.242188 C 371.652344 630.78125 352.511719 628.71875 335.34375 616.136719 C 327.199219 610.15625 320.402344 602.089844 315.148438 592.160156 C 314.320312 590.59375 313.535156 589.167969 312.59375 587.445312 C 311.609375 585.65625 310.453125 583.539062 308.855469 580.5625 C 279.195312 525.246094 241.152344 475.988281 195.78125 434.140625 C 165.007812 405.761719 133.429688 380.257812 108.28125 360.972656 C 108.199219 360.910156 108.125 360.847656 108.035156 360.785156 C 97.085938 352.394531 87.347656 345.171875 79.464844 339.441406 L 106.183594 336.574219 C 111.582031 335.996094 115.492188 331.144531 114.914062 325.75 C 114.335938 320.347656 109.480469 316.425781 104.089844 317.011719 L 51.550781 322.648438 C 47.453125 323.089844 44.0625 326.039062 43.058594 330.042969 C 42.058594 334.046875 43.664062 338.25 47.082031 340.5625 C 47.363281 340.757812 59.433594 348.992188 78.101562 362.832031 C 64.351562 365.042969 47.554688 367.675781 30.449219 370.191406 C 26.1875 370.820312 22.84375 374.152344 22.175781 378.40625 C 21.511719 382.664062 23.695312 386.859375 27.558594 388.761719 C 27.980469 388.960938 70.347656 410.058594 170.070312 485.308594 C 171.839844 486.644531 173.917969 487.292969 175.984375 487.292969 C 178.957031 487.292969 181.898438 485.945312 183.832031 483.378906 C 187.105469 479.046875 186.238281 472.878906 181.90625 469.605469 C 122.914062 425.085938 83.914062 399.351562 61.21875 385.417969 C 76.605469 383.023438 90.273438 380.804688 99.777344 379.238281 C 123.925781 397.871094 153.554688 421.953125 182.457031 448.605469 C 222.414062 485.453125 256.464844 528.304688 283.878906 576.109375 C 167.832031 492.648438 17.539062 412.878906 15.839844 411.976562 C 11.039062 409.433594 5.097656 411.273438 2.5625 416.074219 C 0.0234375 420.878906 1.855469 426.832031 6.652344 429.367188 C 8.554688 430.371094 197.15625 530.476562 313.441406 623.019531 C 316.648438 626.308594 320.0625 629.320312 323.71875 632 C 334.234375 639.714844 349.226562 647.101562 368.066406 647.101562 C 377.484375 647.101562 387.875 645.242188 399.132812 640.660156 C 462.527344 622.550781 672.839844 523.832031 685.410156 517.929688 C 704.109375 510.5625 721.277344 502.785156 736.417969 494.8125 C 769.84375 477.214844 793.6875 445.957031 801.839844 409.074219 C 809.988281 372.230469 801.566406 333.894531 778.726562 303.878906 C 747.179688 262.433594 704.53125 231.289062 674.308594 212.457031 " fill-opacity="1" fill-rule="nonzero"/></g><path fill="rgb(100%, 100%, 100%)" d="M 267.324219 282.546875 C 266.140625 277.242188 260.851562 273.914062 255.585938 275.105469 C 238.578125 278.929688 210.59375 279.957031 210.308594 279.96875 C 204.890625 280.164062 200.648438 284.714844 200.84375 290.144531 C 201.027344 295.453125 205.386719 299.632812 210.652344 299.632812 C 210.769531 299.632812 210.886719 299.628906 211.003906 299.628906 C 212.222656 299.585938 241.082031 298.523438 259.894531 294.292969 C 265.191406 293.101562 268.515625 287.84375 267.324219 282.546875 " fill-opacity="1" fill-rule="nonzero"/><path fill="rgb(100%, 100%, 100%)" d="M 268.109375 327.511719 C 268.695312 327.511719 269.289062 327.457031 269.878906 327.355469 L 283.574219 324.851562 C 288.914062 323.882812 292.453125 318.753906 291.480469 313.414062 C 290.511719 308.066406 285.371094 304.539062 280.050781 305.5 L 266.355469 308 C 261.019531 308.972656 257.476562 314.089844 258.449219 319.4375 C 259.316406 324.183594 263.449219 327.511719 268.109375 327.511719 " fill-opacity="1" fill-rule="nonzero"/><path fill="rgb(100%, 100%, 100%)" d="M 274.953125 366.726562 C 275.4375 366.726562 275.925781 366.691406 276.421875 366.617188 C 277.433594 366.464844 301.519531 362.796875 323.457031 354.804688 C 328.5625 352.953125 331.191406 347.300781 329.332031 342.203125 C 327.472656 337.097656 321.828125 334.472656 316.730469 336.324219 C 296.691406 343.621094 273.734375 347.128906 273.507812 347.15625 C 268.144531 347.96875 264.441406 352.972656 265.246094 358.347656 C 265.980469 363.226562 270.167969 366.726562 274.953125 366.726562 " fill-opacity="1" fill-rule="nonzero"/><path fill="rgb(100%, 100%, 100%)" d="M 587.757812 296.527344 C 588.847656 296.527344 589.964844 296.347656 591.050781 295.953125 L 596.640625 293.964844 C 601.757812 292.136719 604.421875 286.507812 602.597656 281.394531 C 600.773438 276.277344 595.140625 273.617188 590.039062 275.433594 L 584.46875 277.425781 C 579.351562 279.238281 576.679688 284.867188 578.496094 289.980469 C 579.929688 294.011719 583.71875 296.527344 587.757812 296.527344 " fill-opacity="1" fill-rule="nonzero"/><path fill="rgb(100%, 100%, 100%)" d="M 392.3125 357.976562 C 394.199219 359.972656 396.792969 361.0625 399.464844 361.0625 C 400.496094 361.0625 401.550781 360.898438 402.5625 360.558594 C 403.3125 360.3125 478 335.417969 548.214844 311.003906 C 553.335938 309.226562 556.058594 303.617188 554.273438 298.492188 C 552.488281 293.355469 546.886719 290.636719 541.761719 292.425781 C 483.085938 312.824219 421.285156 333.554688 402.261719 339.921875 C 382.085938 319.011719 354.761719 293.8125 338.058594 278.703125 C 434.878906 259.195312 527.707031 223.332031 551.359375 213.855469 C 585.238281 243.707031 629.507812 275.285156 631.464844 276.667969 C 635.878906 279.8125 642.019531 278.785156 645.167969 274.355469 C 648.3125 269.929688 647.28125 263.789062 642.851562 260.640625 C 642.363281 260.289062 593.390625 225.371094 559.917969 195.140625 C 557.089844 192.585938 553.046875 191.894531 549.542969 193.371094 C 548.371094 193.859375 431.214844 242.566406 314.96875 263.046875 C 311.242188 263.707031 308.234375 266.429688 307.207031 270.066406 C 306.183594 273.707031 307.332031 277.613281 310.167969 280.105469 C 310.691406 280.570312 362.851562 326.691406 392.3125 357.976562 " fill-opacity="1" fill-rule="nonzero"/><path fill="rgb(100%, 100%, 100%)" d="M 672.511719 311.734375 C 681.867188 317.210938 706.132812 333.023438 723.109375 358.292969 C 729.863281 368.351562 731.675781 380.78125 728.074219 392.394531 C 724.449219 404.066406 715.871094 413.339844 704.53125 417.832031 L 684.871094 425.632812 C 679.925781 404.710938 665.328125 361.980469 625.066406 332.210938 Z M 667.671875 440.289062 C 668.019531 443.328125 669.761719 446.027344 672.386719 447.597656 C 673.9375 448.523438 675.683594 448.996094 677.433594 448.996094 C 678.660156 448.996094 679.894531 448.769531 681.054688 448.300781 L 711.765625 436.121094 C 728.671875 429.421875 741.453125 415.605469 746.851562 398.222656 C 752.214844 380.898438 749.507812 362.34375 739.421875 347.316406 C 715.265625 311.355469 679.011719 292.777344 677.476562 292.007812 C 674.878906 290.691406 671.828125 290.601562 669.15625 291.75 L 600.355469 321.457031 C 596.917969 322.9375 594.617188 326.253906 594.433594 329.992188 C 594.246094 333.734375 596.195312 337.257812 599.472656 339.082031 C 658.898438 372.148438 667.59375 439.625 667.671875 440.289062 " fill-opacity="1" fill-rule="nonzero"/><path fill="rgb(100%, 100%, 100%)" d="M 548.972656 341.960938 L 420.570312 387.789062 C 415.453125 389.617188 412.789062 395.238281 414.613281 400.359375 C 416.046875 404.382812 419.832031 406.890625 423.867188 406.890625 C 424.96875 406.890625 426.078125 406.703125 427.175781 406.316406 L 555.574219 360.492188 C 560.691406 358.664062 563.355469 353.042969 561.53125 347.921875 C 559.707031 342.808594 554.085938 340.144531 548.972656 341.960938 " fill-opacity="1" fill-rule="nonzero"/><path fill="rgb(100%, 100%, 100%)" d="M 478.84375 433.589844 C 480.304688 437.566406 484.066406 440.039062 488.074219 440.039062 C 489.195312 440.039062 490.34375 439.839844 491.460938 439.433594 L 591.140625 402.824219 C 596.234375 400.957031 598.851562 395.300781 596.988281 390.207031 C 595.113281 385.101562 589.453125 382.492188 584.371094 384.359375 L 484.691406 420.96875 C 479.589844 422.839844 476.980469 428.492188 478.84375 433.589844 " fill-opacity="1" fill-rule="nonzero"/><path fill="rgb(100%, 100%, 100%)" d="M 421.484375 464.492188 C 422.617188 464.492188 423.757812 464.292969 424.875 463.886719 L 438.960938 458.710938 C 444.058594 456.839844 446.675781 451.1875 444.800781 446.089844 C 442.929688 440.992188 437.277344 438.371094 432.195312 440.246094 L 418.097656 445.421875 C 413.007812 447.289062 410.386719 452.945312 412.265625 458.042969 C 413.71875 462.019531 417.484375 464.492188 421.484375 464.492188 " fill-opacity="1" fill-rule="nonzero"/><path fill="rgb(100%, 100%, 100%)" d="M 460.796875 515.9375 C 462.039062 515.9375 463.296875 515.703125 464.515625 515.207031 L 612.171875 454.800781 C 617.195312 452.738281 619.601562 447 617.546875 441.96875 C 615.496094 436.9375 609.746094 434.527344 604.734375 436.585938 L 457.078125 497.003906 C 452.050781 499.054688 449.648438 504.796875 451.703125 509.824219 C 453.257812 513.636719 456.929688 515.9375 460.796875 515.9375 " fill-opacity="1" fill-rule="nonzero"/></svg>